<svg width="100" height="100" viewBox="0 0 100 100" fill="none" xmlns="http://www.w3.org/2000/svg">
<circle cx="50" cy="50" r="48" fill="#D9D9D9" stroke="#128316" stroke-width="4"/>
<path d="M49.9015 72.5966C47.4015 72.5966 45.15 72.0994 43.1472 71.1051C41.1444 70.1108 39.5392 68.7472 38.3319 67.0142C37.1245 65.2812 36.464 63.3068 36.3503 61.0909H41.464C41.6628 63.0653 42.5577 64.6989 44.1486 65.9915C45.7537 67.2699 47.6713 67.9091 49.9015 67.9091C51.6912 67.9091 53.2821 67.4901 54.6742 66.652C56.0804 65.8139 57.1813 64.6634 57.9767 63.2003C58.7864 61.723 59.1912 60.054 59.1912 58.1932C59.1912 56.2898 58.7722 54.5923 57.9341 53.1009C57.1103 51.5952 55.9739 50.4091 54.525 49.5426C53.0762 48.6761 51.4213 48.2358 49.5605 48.2216C48.2253 48.2074 46.8546 48.4134 45.4483 48.8395C44.0421 49.2514 42.8844 49.7841 41.9753 50.4375L37.0321 49.8409L39.6742 28.3636H62.3446V33.0511H44.106L42.5719 45.9205H42.8276C43.7225 45.2102 44.8446 44.6207 46.1941 44.152C47.5435 43.6832 48.9498 43.4489 50.4128 43.4489C53.0833 43.4489 55.4625 44.0881 57.5506 45.3665C59.6529 46.6307 61.3006 48.3636 62.4938 50.5653C63.7012 52.767 64.3049 55.2812 64.3049 58.108C64.3049 60.892 63.6799 63.3778 62.4299 65.5653C61.1941 67.7386 59.4895 69.4574 57.3162 70.7216C55.1429 71.9716 52.6713 72.5966 49.9015 72.5966Z" fill="#129712"/>
</svg>
